# xmcd CD database file
#
# Track frame offsets:
#	150
#	13850
#	28038
#	45062
#	63627
#	78194
#	97282
#	112303
#	125522
#	139529
#	154884
#	167119
#	183287
#
# Disc length: 2588 seconds
#
# Revision: 0
# Processed by: cddbd v1.5.2PL0 Copyright (c) Steve Scherf et al.
# Submitted via: CDex 1.70beta2
#
DISCID=ad0a1a0d
DTITLE=Greg Williams - Now and Then
DYEAR=2009
DGENRE=Country
TTITLE0=Now and Then
TTITLE1=Take These Chains
TTITLE2=Over The Line
TTITLE3=You're My Best Friend
TTITLE4=The Longyard
TTITLE5=The Bullocky
TTITLE6=By a Fire of Gidgee Cola
TTITLE7=Lights on the Hill
TTITLE8=Swingin' Doors
TTITLE9=Tonight the Bottle Let Me Down
TTITLE10=Say It Now
TTITLE11=Drinkin' Again
TTITLE12=That's How Much
EXTD=YEAR: 2009
EXTT0=
EXTT1=
EXTT2=
EXTT3=
EXTT4=
EXTT5=
EXTT6=
EXTT7=
EXTT8=
EXTT9=
EXTT10=
EXTT11=
EXTT12=
PLAYORDER=
